<svg width="142" height="25" viewBox="0 0 142 25" fill="none" xmlns="http://www.w3.org/2000/svg">
<path opacity="0.8" d="M46.5114 16.36H50.9914V19H43.0914V4.96H46.5114V16.36ZM51.9427 13.4C51.9427 12.2533 52.156 11.2467 52.5827 10.38C53.0227 9.51333 53.616 8.84667 54.3627 8.38C55.1094 7.91333 55.9427 7.68 56.8627 7.68C57.6494 7.68 58.336 7.84 58.9227 8.16C59.5227 8.48 59.9827 8.9 60.3027 9.42V7.84H63.7227V19H60.3027V17.42C59.9694 17.94 59.5027 18.36 58.9027 18.68C58.316 19 57.6294 19.16 56.8427 19.16C55.936 19.16 55.1094 18.9267 54.3627 18.46C53.616 17.98 53.0227 17.3067 52.5827 16.44C52.156 15.56 51.9427 14.5467 51.9427 13.4ZM60.3027 13.42C60.3027 12.5667 60.0627 11.8933 59.5827 11.4C59.116 10.9067 58.5427 10.66 57.8627 10.66C57.1827 10.66 56.6027 10.9067 56.1227 11.4C55.656 11.88 55.4227 12.5467 55.4227 13.4C55.4227 14.2533 55.656 14.9333 56.1227 15.44C56.6027 15.9333 57.1827 16.18 57.8627 16.18C58.5427 16.18 59.116 15.9333 59.5827 15.44C60.0627 14.9467 60.3027 14.2733 60.3027 13.42ZM72.9969 7.72C74.3036 7.72 75.3436 8.14667 76.1169 9C76.9036 9.84 77.2969 11 77.2969 12.48V19H73.8969V12.94C73.8969 12.1933 73.7036 11.6133 73.3169 11.2C72.9302 10.7867 72.4102 10.58 71.7569 10.58C71.1036 10.58 70.5836 10.7867 70.1969 11.2C69.8102 11.6133 69.6169 12.1933 69.6169 12.94V19H66.1969V7.84H69.6169V9.32C69.9636 8.82667 70.4302 8.44 71.0169 8.16C71.6036 7.86667 72.2636 7.72 72.9969 7.72ZM78.9935 13.4C78.9935 12.2533 79.2068 11.2467 79.6335 10.38C80.0735 9.51333 80.6668 8.84667 81.4135 8.38C82.1601 7.91333 82.9935 7.68 83.9135 7.68C84.6468 7.68 85.3135 7.83333 85.9135 8.14C86.5268 8.44667 87.0068 8.86 87.3535 9.38V4.2H90.7735V19H87.3535V17.4C87.0335 17.9333 86.5735 18.36 85.9735 18.68C85.3868 19 84.7001 19.16 83.9135 19.16C82.9935 19.16 82.1601 18.9267 81.4135 18.46C80.6668 17.98 80.0735 17.3067 79.6335 16.44C79.2068 15.56 78.9935 14.5467 78.9935 13.4ZM87.3535 13.42C87.3535 12.5667 87.1135 11.8933 86.6335 11.4C86.1668 10.9067 85.5935 10.66 84.9135 10.66C84.2335 10.66 83.6535 10.9067 83.1735 11.4C82.7068 11.88 82.4735 12.5467 82.4735 13.4C82.4735 14.2533 82.7068 14.9333 83.1735 15.44C83.6535 15.9333 84.2335 16.18 84.9135 16.18C85.5935 16.18 86.1668 15.9333 86.6335 15.44C87.1135 14.9467 87.3535 14.2733 87.3535 13.42ZM97.4877 7.68C98.2744 7.68 98.961 7.84 99.5477 8.16C100.148 8.48 100.608 8.9 100.928 9.42V7.84H104.348V18.98C104.348 20.0067 104.141 20.9333 103.728 21.76C103.328 22.6 102.708 23.2667 101.868 23.76C101.041 24.2533 100.008 24.5 98.7677 24.5C97.1144 24.5 95.7744 24.1067 94.7477 23.32C93.721 22.5467 93.1344 21.4933 92.9877 20.16H96.3677C96.4744 20.5867 96.7277 20.92 97.1277 21.16C97.5277 21.4133 98.021 21.54 98.6077 21.54C99.3144 21.54 99.8744 21.3333 100.288 20.92C100.714 20.52 100.928 19.8733 100.928 18.98V17.4C100.594 17.92 100.134 18.3467 99.5477 18.68C98.961 19 98.2744 19.16 97.4877 19.16C96.5677 19.16 95.7344 18.9267 94.9877 18.46C94.241 17.98 93.6477 17.3067 93.2077 16.44C92.781 15.56 92.5677 14.5467 92.5677 13.4C92.5677 12.2533 92.781 11.2467 93.2077 10.38C93.6477 9.51333 94.241 8.84667 94.9877 8.38C95.7344 7.91333 96.5677 7.68 97.4877 7.68ZM100.928 13.42C100.928 12.5667 100.688 11.8933 100.208 11.4C99.741 10.9067 99.1677 10.66 98.4877 10.66C97.8077 10.66 97.2277 10.9067 96.7477 11.4C96.281 11.88 96.0477 12.5467 96.0477 13.4C96.0477 14.2533 96.281 14.9333 96.7477 15.44C97.2277 15.9333 97.8077 16.18 98.4877 16.18C99.1677 16.18 99.741 15.9333 100.208 15.44C100.688 14.9467 100.928 14.2733 100.928 13.42ZM117.842 7.84V19H114.422V17.48C114.075 17.9733 113.602 18.3733 113.002 18.68C112.415 18.9733 111.762 19.12 111.042 19.12C110.189 19.12 109.435 18.9333 108.782 18.56C108.129 18.1733 107.622 17.62 107.262 16.9C106.902 16.18 106.722 15.3333 106.722 14.36V7.84H110.122V13.9C110.122 14.6467 110.315 15.2267 110.702 15.64C111.089 16.0533 111.609 16.26 112.262 16.26C112.929 16.26 113.455 16.0533 113.842 15.64C114.229 15.2267 114.422 14.6467 114.422 13.9V7.84H117.842ZM123.718 9.7C124.118 9.08667 124.618 8.60667 125.218 8.26C125.818 7.9 126.485 7.72 127.218 7.72V11.34H126.278C125.425 11.34 124.785 11.5267 124.358 11.9C123.932 12.26 123.718 12.9 123.718 13.82V19H120.298V7.84H123.718V9.7ZM139.873 7.84V19H136.453V17.48C136.106 17.9733 135.633 18.3733 135.033 18.68C134.446 18.9733 133.793 19.12 133.073 19.12C132.22 19.12 131.466 18.9333 130.813 18.56C130.16 18.1733 129.653 17.62 129.293 16.9C128.933 16.18 128.753 15.3333 128.753 14.36V7.84H132.153V13.9C132.153 14.6467 132.346 15.2267 132.733 15.64C133.12 16.0533 133.64 16.26 134.293 16.26C134.96 16.26 135.486 16.0533 135.873 15.64C136.26 15.2267 136.453 14.6467 136.453 13.9V7.84H139.873Z" fill="#02073E"/>
<path fill-rule="evenodd" clip-rule="evenodd" d="M29.2841 6.28911C29.2887 6.37084 29.2828 6.45385 29.2624 6.53728L27.4367 13.8696C27.3445 14.2386 27.0148 14.4988 26.6358 14.5009L15.6818 14.5564C15.6805 14.5564 15.6791 14.5564 15.6776 14.5564H4.72364C4.34252 14.5564 4.01048 14.2953 3.91849 13.9242L2.0928 6.56393C2.07172 6.47878 2.0657 6.39319 2.07101 6.30933C1.36473 6.08614 0.851074 5.42252 0.851074 4.64065C0.851074 3.67515 1.63277 2.89025 2.59372 2.89025C3.55467 2.89025 4.33637 3.67515 4.33637 4.64065C4.33637 5.18382 4.08839 5.66982 3.70013 5.9915L5.98585 8.30358C6.56359 8.88804 7.36516 9.2235 8.18523 9.2235C9.15498 9.2235 10.0795 8.76075 10.6617 7.98617L14.4182 2.98831C14.1027 2.67178 13.9072 2.23439 13.9072 1.75186C13.9072 0.786768 14.6889 0.00146484 15.6499 0.00146484C16.6108 0.00146484 17.3925 0.786768 17.3925 1.75186C17.3925 2.21978 17.2075 2.64425 16.9085 2.95863C16.9095 2.95993 16.9107 2.96123 16.9117 2.96251L20.6408 7.97415C21.2229 8.75602 22.1507 9.2235 23.1232 9.2235C23.9509 9.2235 24.7292 8.89966 25.3143 8.31218L27.6144 6.00225C27.218 5.681 26.9634 5.19072 26.9634 4.64065C26.9634 3.67515 27.7452 2.89025 28.7061 2.89025C29.667 2.89025 30.4488 3.67515 30.4488 4.64065C30.4488 5.40145 29.9613 6.04913 29.2841 6.28911ZM27.2585 17.1669C27.2585 16.7072 26.8869 16.3339 26.4287 16.3339H4.9634C4.5051 16.3339 4.13351 16.7072 4.13351 17.1669V19.1668C4.13351 19.6274 4.5051 20.0003 4.9634 20.0003H26.4287C26.8869 20.0003 27.2585 19.6274 27.2585 19.1668V17.1669Z" fill="#02073E"/>
</svg>
