<svg width="1920" height="1056" viewBox="0 0 1920 1056" fill="none" xmlns="http://www.w3.org/2000/svg">
<path d="M2.85147 5.99964C2.85147 5.99964 85.3515 -26.4914 182.851 64.9996C248.251 126.366 248.852 169.1 272.112 273.148C300.612 400.636 387.43 590.162 603.852 499C719.736 450.186 709.952 582.652 640.852 714C597.057 797.24 506.992 888.367 483.852 906C325.068 1026.99 90.1845 1014.28 1.85147 991C-86.1425 967.809 -18.1415 10.4996 2.85147 5.99964Z" fill="#0898E7"/>
<path d="M1929.85 246C1929.85 246 1622.27 162.563 1396.85 455C1292.67 590.158 1270.35 679.01 1274.85 823C1281.6 1038.96 1315.77 1091.71 1491.85 1033C1586.32 1001.5 1686.85 963.999 1686.85 963.999C1742.85 941.999 1903.86 902.08 1930.85 907C1957.84 911.92 1985.33 247.5 1929.85 246Z" fill="#FAAE1B"/>
</svg>
